<svg width="165" height="110" viewBox="0 0 165 110" fill="none" xmlns="http://www.w3.org/2000/svg">
<path d="M95.4847 23.0218L119.732 8.39023L115.715 29.6601L115.448 31.0725L116.865 30.8315L147.729 25.5837L129.944 42.7265L128.505 44.114L130.479 44.4336L160.734 49.3333L133.267 58.9078L131.231 59.6177L133.088 60.7134L156.334 74.4242L124.898 74.3043L123.165 74.2977L124.027 75.8013L135.321 95.5188L106.863 85.3218L105.741 84.92L105.54 86.0939L101.828 107.704L83.4004 89.5066L82.6977 88.8127L81.9951 89.5066L63.5679 107.704L59.8557 86.0939L59.6541 84.92L58.5329 85.3218L30.0746 95.5188L41.3689 75.8013L42.2302 74.2977L40.4974 74.3043L9.06163 74.4242L32.307 60.7134L34.1647 59.6177L32.1281 58.9078L4.66155 49.3333L34.9169 44.4336L36.8905 44.114L35.451 42.7265L17.6661 25.5837L48.5301 30.8315L49.9471 31.0725L49.6803 29.6601L45.6637 8.39023L69.9107 23.0218L70.7995 23.5581L71.3023 22.6499L82.6977 2.06476L94.0932 22.6499L94.5959 23.5581L95.4847 23.0218Z" stroke="#6167FF" stroke-width="2"/>
</svg>
