<svg width="115" height="115" viewBox="0 0 115 115" fill="none" xmlns="http://www.w3.org/2000/svg">
<path d="M57.5 0L61.5357 35.9109L78.2714 3.88285L69.0621 38.8266L96.2375 15.007L75.0269 44.2643L108.972 31.87L78.6246 51.4895L114.755 52.1946L79.3694 59.5265L112.805 73.2356L77.1605 67.2898L103.386 92.1515L72.2964 73.7309L87.7699 106.387L65.434 77.9799L68.0656 114.021L57.5 79.463L46.9344 114.021L49.566 77.9799L27.2302 106.387L42.7036 73.7309L11.614 92.1515L37.8395 67.2898L2.19503 73.2356L35.6306 59.5265L0.245285 52.1946L36.3754 51.4895L6.02811 31.87L39.9731 44.2643L18.7625 15.007L45.9379 38.8266L36.7286 3.88285L53.4643 35.9109L57.5 0Z" fill="#A2FF8F"/>
</svg>
